# xmcd
#
# Track frame offsets: 
#        150
#        29737
#        62017
#        92029
#        121030
#        144800
#        167708
#        190751
#
# Disc length: 2954 seconds
#
# Revision: 0
# Processed by: cddbd v1.5.2PL0 Copyright (c) Steve Scherf et al.
# Submitted via: ExactAudioCopy v0.99pb5
#
DISCID=630b8808
DTITLE=THO-SO-AA - Identify
DYEAR=2010
DGENRE=Dark Ambient
TTITLE0=(Meta)
TTITLE1=Is It Worth?
TTITLE2=FYGDM
TTITLE3=Death Penalty
TTITLE4=Abused
TTITLE5=The Ritual
TTITLE6=Marching To Your Destiny
TTITLE7=I Finally Made It
EXTD=
EXTT0=
EXTT1=
EXTT2=
EXTT3=
EXTT4=
EXTT5=
EXTT6=
EXTT7=
PLAYORDER=
